<svg width="263" height="278" viewBox="0 0 263 278" fill="none" xmlns="http://www.w3.org/2000/svg">
<path d="M117.2 117.6L168.4 172.8C170.8 161.2 172 148.4 172.4 135.6H223.2C222.8 159.6 214.8 187.2 202.8 209.6L262.8 274.4H194.4L170.8 249.2C149.2 268 124.8 278 98.4 278C38.4 278 5.96046e-08 243.6 5.96046e-08 190C5.96046e-08 159.6 18.4 134 48.8 116.8C38.8 102.8 34 88.3999 34 71.9999C34 30.3999 70 -0.000117302 118.4 -0.000117302C167.2 -0.000117302 199.6 29.1999 200 73.1999H148.4C146.4 54.3999 134.8 44.3999 118.4 44.3999C102.8 44.3999 91.2 55.9999 91.2 72.3999C91.2 87.1999 99.2 97.9999 117.2 117.6ZM53.2 186.8C53.2 212.4 70 232.8 102.4 232.8C117.2 232.8 131.2 228 142.4 218.8L77.2 149.6C62.4 157.2 53.2 170.4 53.2 186.8Z" fill="url(#paint0_linear_189_7004)"/>
<defs>
<linearGradient id="paint0_linear_189_7004" x1="124.672" y1="-39.6001" x2="124.672" y2="280.4" gradientUnits="userSpaceOnUse">
<stop stop-color="#FF7400"/>
<stop offset="1" stop-color="white"/>
</linearGradient>
</defs>
</svg>
