<svg width="64" height="42" viewBox="0 0 64 42" fill="none" xmlns="http://www.w3.org/2000/svg">
<path d="M15.805 41.4233C15.4393 41.6044 15.0355 41.6862 14.6313 41.661C14.227 41.6358 13.8355 41.5045 13.4931 41.2792C13.1507 41.054 12.8686 40.7422 12.673 40.3728C12.4774 40.0034 12.3748 39.5885 12.3746 39.1667V34.0086C12.3746 32.0635 10.9433 30.4539 9.15651 29.6852C6.80159 28.6721 4.71894 27.0349 3.12935 24.9107C0.846508 21.86 -0.252868 18.0274 0.0490691 14.1722C0.351007 10.3171 2.03222 6.72073 4.75957 4.09587C7.48692 1.471 11.0614 0.00914947 14.7746 0C18.7009 0.00088393 22.4662 1.62623 25.2422 4.51857C28.0183 7.41091 29.5778 11.3334 29.5778 15.4233C29.5778 24.9067 26.221 31.41 22.7938 35.5367C21.4089 37.2154 19.8287 38.708 18.0898 39.98C17.4274 40.4696 16.7359 40.915 16.0194 41.3133L15.8754 41.39L15.8306 41.41L15.8114 41.42L15.805 41.4233ZM4.7682 15.4233C4.7682 21.1767 9.2482 25.8433 14.7746 25.8433C15.4111 25.8433 16.0216 26.1067 16.4717 26.5756C16.9217 27.0444 17.1746 27.6803 17.1746 28.3433V31.4756C17.1746 32.5777 18.4566 33.1163 19.1586 32.2667C21.933 28.93 24.7778 23.56 24.7778 15.4233C24.7309 12.6916 23.6562 10.0883 21.785 8.17371C19.9139 6.25913 17.3959 5.18639 14.773 5.18639C12.1501 5.18639 9.63211 6.25913 7.76095 8.17371C5.88979 10.0883 4.8151 12.6916 4.7682 15.4233ZM50.205 41.4233C49.8393 41.6044 49.4355 41.6862 49.0313 41.661C48.627 41.6358 48.2355 41.5045 47.8931 41.2792C47.5507 41.054 47.2686 40.7422 47.073 40.3728C46.8774 40.0034 46.7748 39.5885 46.7746 39.1667V34.0086C46.7746 32.0635 45.3433 30.4539 43.5565 29.6852C41.2016 28.6721 39.1189 27.0349 37.5293 24.9107C35.2465 21.86 34.1471 18.0274 34.4491 14.1722C34.751 10.3171 36.4322 6.72073 39.1596 4.09587C41.8869 1.471 45.4614 0.00914947 49.1746 0C53.1009 0.00088393 56.8662 1.62623 59.6422 4.51857C62.4183 7.41091 63.9778 11.3334 63.9778 15.4233C63.9778 24.9067 60.621 31.41 57.1938 35.5367C55.8089 37.2154 54.2287 38.708 52.4898 39.98C51.7829 40.5003 51.0431 40.9703 50.2754 41.3867L50.2408 41.4073C50.234 41.4113 50.2269 41.4146 50.2194 41.4172L50.2182 41.4176C50.2137 41.4192 50.2093 41.4211 50.205 41.4233ZM39.1682 15.4233C39.1682 21.1767 43.6482 25.8433 49.1746 25.8433C49.8111 25.8433 50.4216 26.1067 50.8717 26.5756C51.3217 27.0444 51.5746 27.6803 51.5746 28.3433V31.4756C51.5746 32.5777 52.8566 33.1163 53.5586 32.2667C56.333 28.93 59.1778 23.56 59.1778 15.4233C59.1309 12.6916 58.0562 10.0883 56.185 8.17371C54.3139 6.25913 51.7959 5.18639 49.173 5.18639C46.5501 5.18639 44.0321 6.25913 42.161 8.17371C40.2898 10.0883 39.2151 12.6916 39.1682 15.4233Z" fill="url(#paint0_linear_170_5768)"/>
<defs>
<linearGradient id="paint0_linear_170_5768" x1="31.9889" y1="0" x2="31.9889" y2="41.6655" gradientUnits="userSpaceOnUse">
<stop stop-color="#FF7400"/>
<stop offset="1" stop-color="#FFDA00"/>
</linearGradient>
</defs>
</svg>
